<svg id="visual" viewBox="0 0 8000 8000" width="8000" height="8000" xmlns="http://www.w3.org/2000/svg" xmlns:xlink="http://www.w3.org/1999/xlink" version="1.1"><rect x="0" y="0" width="8000" height="8000" fill="#000000"></rect><defs><linearGradient id="grad1_0" x1="0%" y1="0%" x2="100%" y2="100%"><stop offset="30%" stop-color="#000000" stop-opacity="1"></stop><stop offset="70%" stop-color="#000000" stop-opacity="1"></stop></linearGradient></defs><defs><linearGradient id="grad2_0" x1="0%" y1="0%" x2="100%" y2="100%"><stop offset="30%" stop-color="#000000" stop-opacity="1"></stop><stop offset="70%" stop-color="#000000" stop-opacity="1"></stop></linearGradient></defs><g transform="translate(8000, 0)"><path d="M0 5091.2C-409.8 5110.7 -819.7 5130.3 -1114.6 4883.4C-1409.5 4636.5 -1589.5 4123.2 -1890.9 3926.4C-2192.2 3729.7 -2614.8 3849.6 -3028.3 3797.4C-3441.8 3745.2 -3846.1 3520.9 -3963.1 3160.5C-4080.1 2800.1 -3909.6 2303.5 -4074.2 1962C-4238.7 1620.5 -4738.2 1434.1 -4963.5 1132.9C-5188.8 831.7 -5140 415.9 -5091.2 0L0 0Z" fill="#064e3b"></path></g><g transform="translate(0, 8000)"><path d="M0 -5091.2C377.9 -5049.8 755.8 -5008.3 1119.9 -4906.8C1484.1 -4805.3 1834.6 -4643.6 2114.7 -4391.3C2394.9 -4139 2604.9 -3796 2803.8 -3515.9C3002.8 -3235.8 3190.9 -3018.5 3563.6 -2841.9C3936.3 -2665.2 4493.7 -2529.3 4587 -2209C4680.2 -1888.7 4309.3 -1384 4316 -985.1C4322.7 -586.2 4706.9 -293.1 5091.2 0L0 0Z" fill="#064e3b"></path></g></svg>